<svg width="69" height="67" viewBox="0 0 69 67" fill="none" xmlns="http://www.w3.org/2000/svg">
<ellipse cx="32.375" cy="33.5" rx="32.375" ry="32.5463" fill="#F2F2F2"/>
<path d="M66.9878 21.0059L45.141 13.0202C44.8895 12.9147 44.638 12.9147 44.3864 13.0202L22.5397 21.0059C22.1085 21.1466 21.857 21.5335 21.821 21.9909C21.7851 22.4482 22.0725 22.8352 22.5037 22.9759L30.7322 26.142V33.9518C30.7322 34.2684 30.8759 34.585 31.1634 34.7961C31.4149 35.0072 31.7742 35.0775 32.0976 34.972C32.1695 34.9368 39.6075 33.1075 44.0271 38.5603C44.2427 38.8065 44.5302 38.9472 44.8895 38.9472C45.2129 38.9472 45.5363 38.8065 45.7519 38.5603C50.1356 33.1427 57.1783 34.9016 57.4658 34.972C57.7892 35.0423 58.1485 35.0072 58.4 34.7961C58.6515 34.585 58.8312 34.3036 58.8312 33.9518V26.142L64.4725 23.9609V31.7003C64.4725 32.2984 64.9397 32.7557 65.5505 32.7557C66.1614 32.7557 66.6285 32.2984 66.6285 31.7003V23.1518L67.0597 22.9759C67.4908 22.8 67.7424 22.413 67.7424 21.9909C67.7424 21.5687 67.419 21.1466 66.9878 21.0059ZM56.6393 32.6853C54.16 32.3687 48.878 32.228 44.8895 36.3088C40.8292 32.228 35.4034 32.3335 32.9241 32.6853V26.9863L44.3864 31.4189C44.5302 31.4541 44.638 31.4893 44.7817 31.4893C44.9254 31.4893 45.0332 31.4541 45.1769 31.4189L56.6393 26.9863V32.6853ZM44.7817 29.3081L25.9173 22.0261L44.7817 15.1309L63.6102 21.9909L44.7817 29.3081Z" fill="#6768AB"/>
<path d="M62.6759 52.0691H55.4176C54.0163 50.9786 53.2258 49.3251 53.2976 47.5662C53.3695 45.8072 54.2678 44.2242 55.741 43.2391L55.9566 43.0984C56.3519 42.8522 56.5315 42.3597 56.3878 41.9023C56.2441 41.445 55.8488 41.1636 55.3458 41.1636H22.6475C22.5756 41.1636 22.5037 41.1636 22.3959 41.1988L22.1444 41.2339C18.9464 41.9375 17.3295 44.4352 17.078 46.8274C17.042 46.933 17.042 47.0385 17.042 47.144C17.042 47.1792 17.042 47.2496 17.042 47.2847C17.042 47.3551 17.042 47.4606 17.042 47.531C17.0061 50.0991 18.5871 53.0541 22.1444 53.8984L22.4678 53.9688C22.5397 54.004 22.6475 54.004 22.7193 54.004H26.1688C25.1268 55.0593 24.5878 56.4313 24.4081 57.733C24.3722 57.8385 24.3722 57.944 24.3722 58.0496C24.3722 58.0847 24.3722 58.1551 24.3722 58.1903C24.3722 58.2606 24.3722 58.3662 24.3722 58.4365C24.3363 61.0046 25.9173 63.9597 29.4746 64.804L29.798 64.8743C29.8698 64.9095 29.9776 64.9095 30.0495 64.9095H62.2088C62.8197 64.9095 63.2868 64.4522 63.2868 63.8541C63.2868 63.4672 63.1071 63.1505 62.7837 62.9746C61.3824 61.8841 60.5919 60.2307 60.6637 58.4717C60.7356 56.7128 61.6339 55.1297 63.1071 54.1447L63.3227 54.004C63.718 53.7577 63.8976 53.2652 63.7539 52.8079C63.5742 52.3505 63.1431 52.0691 62.6759 52.0691ZM22.6115 51.858C20.3837 51.3303 19.4136 49.6769 19.2339 48.1994H45.0692C45.68 48.1994 46.1471 47.7421 46.1471 47.144C46.1471 46.546 45.68 46.0887 45.0692 46.0887H19.4136C19.8448 44.8574 20.8149 43.6965 22.6475 43.3095L22.7553 43.2743H52.6509C51.7525 44.4704 51.2136 45.9479 51.1776 47.4958C51.1058 49.0789 51.537 50.6268 52.3993 51.8932H22.7912L22.6115 51.858ZM59.6936 62.7987H30.0854L29.9058 62.7636C27.678 62.2359 26.7078 60.5825 26.5281 59.1049H52.3634C52.9742 59.1049 53.4414 58.6476 53.4414 58.0496C53.4414 57.4515 52.9742 56.9942 52.3634 56.9942H26.7437C27.1749 55.7629 28.1451 54.602 29.9776 54.215L30.0854 54.1799H59.9451C59.0468 55.3759 58.5078 56.8535 58.4719 58.4014C58.4 59.9844 58.8312 61.4971 59.6936 62.7987Z" fill="#6768AB"/>
</svg>
