<svg width="74" height="71" viewBox="0 0 74 71" fill="none" xmlns="http://www.w3.org/2000/svg">
<ellipse cx="32.375" cy="33.4665" rx="32.375" ry="32.5463" fill="#F2F2F2"/>
<path d="M19.2603 70.0798C19.1026 70.0798 18.942 70.0501 18.7868 69.9872C18.1418 69.7259 17.8311 68.9918 18.0928 68.3477L21.5697 59.7909C23.0664 56.1091 25.7199 51.2441 31.5482 51.0087C31.5975 51.0028 31.6475 50.9998 31.6977 50.9998H36.8977C36.948 50.9998 36.9979 51.0028 37.0473 51.0087C42.8761 51.2441 45.5296 56.1091 47.0261 59.7908L47.4745 60.8944L56.8191 52.2712C57.3304 51.7994 58.128 51.8309 58.6002 52.3413C59.0727 52.8518 59.0414 53.648 58.5301 54.1198L47.8473 63.9781C47.5434 64.2586 47.1207 64.3723 46.7172 64.282C46.3134 64.192 45.9794 63.9098 45.8239 63.5269L44.6904 60.7374C42.8896 56.3072 40.812 54.1004 37.9002 53.619L37.1591 57.1519L38.1506 66.0598C38.1982 66.4877 38.0235 66.9103 37.6874 67.1799L35.4793 68.9514C35.2554 69.131 34.977 69.2289 34.6898 69.2289H33.9061C33.6191 69.2289 33.3405 69.131 33.1168 68.9515L30.9086 67.1801C30.5723 66.9104 30.3976 66.4878 30.4452 66.0598L31.437 57.1519L30.6957 53.6192C27.7841 54.1007 25.7065 56.3075 23.9055 60.7376L20.4287 69.2942C20.23 69.7833 19.7583 70.0798 19.2603 70.0798ZM33.0272 65.6507L34.298 66.6702L35.5686 65.6507L34.756 58.3496H33.8398L33.0272 65.6507ZM33.7357 55.8324H34.8604L35.3462 53.5171H33.2498L33.7357 55.8324ZM72.7396 66.0637H53.5803C52.8842 66.0637 52.3199 65.5002 52.3199 64.8051C52.3199 64.1101 52.8842 63.5465 53.5803 63.5465H71.479V27.3097H21.5199V53.7932C21.5199 54.4882 20.9555 55.0518 20.2595 55.0518C19.5634 55.0518 18.999 54.4882 18.999 53.7932V26.0511C18.999 25.3561 19.5634 24.7925 20.2595 24.7925H72.7396C73.4356 24.7925 74 25.3561 74 26.0511V64.8051C74 65.5002 73.4356 66.0637 72.7396 66.0637ZM40.5378 60.1062C39.8418 60.1062 39.2774 59.5427 39.2774 58.8476V58.6763C39.2774 57.9813 39.8418 57.4177 40.5378 57.4177C41.2339 57.4177 41.7982 57.9813 41.7982 58.6763V58.8476C41.7982 59.5427 41.2339 60.1062 40.5378 60.1062ZM34.298 48.6941C30.474 48.6941 27.3629 45.5874 27.3629 41.769C27.3629 37.9507 30.4739 34.844 34.298 34.844C34.7571 34.844 35.2061 34.8889 35.6405 34.9743C35.6658 34.9785 35.6911 34.9837 35.7161 34.9897C38.8623 35.6451 41.2329 38.4358 41.2329 41.769C41.2329 45.5876 38.1219 48.6941 34.298 48.6941ZM32.0475 37.9782C30.7529 38.7475 29.8837 40.1588 29.8837 41.769C29.8837 44.1995 31.864 46.1769 34.298 46.1769C36.732 46.1769 38.7123 44.1995 38.7123 41.769C38.7123 39.9296 37.5781 38.3496 35.9712 37.6901C35.3961 38.4489 34.6693 39.0832 33.8307 39.5533C33.2235 39.8936 32.4552 39.6779 32.1146 39.0717C31.9186 38.7233 31.9067 38.3215 32.0475 37.9782ZM65.9051 40.2808H59.4364C58.7403 40.2808 58.1759 39.7172 58.1759 39.0222C58.1759 38.3271 58.7403 37.7636 59.4364 37.7636H65.9051C66.6012 37.7636 67.1655 38.3271 67.1655 39.0222C67.1655 39.7172 66.6012 40.2808 65.9051 40.2808ZM53.5801 40.2808H51.1775C50.4814 40.2808 49.9171 39.7172 49.9171 39.0222C49.9171 38.3271 50.4814 37.7636 51.1775 37.7636H53.5801C54.2762 37.7636 54.8406 38.3271 54.8406 39.0222C54.8406 39.7172 54.2762 40.2808 53.5801 40.2808ZM65.9051 35.03H52.9676C52.2715 35.03 51.7072 34.4664 51.7072 33.7714C51.7072 33.0763 52.2715 32.5128 52.9676 32.5128H65.9051C66.6012 32.5128 67.1655 33.0763 67.1655 33.7714C67.1655 34.4664 66.6012 35.03 65.9051 35.03ZM52.9685 21.597H40.0304C39.3343 21.597 38.7699 21.0335 38.7699 20.3384C38.7699 19.6434 39.3343 19.0798 40.0304 19.0798H52.9685C53.6646 19.0798 54.229 19.6434 54.229 20.3384C54.229 21.0335 53.6646 21.597 52.9685 21.597Z" fill="#6768AB"/>
</svg>
