<svg width="78" height="73" viewBox="0 0 78 73" fill="none" xmlns="http://www.w3.org/2000/svg">
<ellipse cx="32.375" cy="33.4014" rx="32.375" ry="32.5463" fill="#F2F2F2"/>
<path d="M26.8392 72.1449C26.0289 72.1449 25.3719 71.4857 25.3719 70.6726V65.2508H23.1678C22.3575 65.2508 21.7005 64.5916 21.7005 63.7785C21.7005 62.9654 22.3575 62.3062 23.1678 62.3062H26.8069C26.8283 62.3058 26.85 62.3058 26.8716 62.3062H74.775C75.5853 62.3062 76.2422 62.9654 76.2422 63.7785C76.2422 64.5916 75.5853 65.2508 74.775 65.2508H28.3064V70.6726C28.3064 71.4857 27.6496 72.1449 26.8392 72.1449ZM16.4671 65.2517C16.2835 65.2517 16.0966 65.2169 15.9159 65.1433C15.1651 64.8376 14.8034 63.9789 15.108 63.2254L19.0956 53.3637C20.857 49.0086 24.0144 43.2187 31.0681 43.2187H36.3572C40.1571 43.2187 43.2858 44.9158 45.656 48.2625C45.7191 48.3481 46.3511 49.1709 46.9086 49.897C47.3103 50.4202 47.7418 50.9819 48.1008 51.4502C48.5947 52.0949 48.4742 53.0192 47.8317 53.515C47.1892 54.0108 46.2682 53.8897 45.7743 53.245C45.4159 52.7774 44.9853 52.2164 44.5842 51.6941C43.5105 50.2958 43.3126 50.0372 43.2613 49.9643C42.1174 48.349 40.8341 47.2709 39.3338 46.6877L34.8978 52.7875C34.6216 53.1671 34.1811 53.3919 33.7126 53.3919C33.2442 53.3919 32.8037 53.1671 32.5275 52.7875L28.0915 46.6877C25.5185 47.69 23.5542 50.1697 21.8146 54.4709L17.8272 64.3324C17.5959 64.9048 17.0468 65.2517 16.4671 65.2517ZM31.343 46.1635L33.7128 49.4221L36.0826 46.1635H31.343ZM56.3756 59.5093H40.2481C39.4378 59.5093 38.7809 58.8501 38.7809 58.037C38.7809 57.2239 39.4378 56.5647 40.2481 56.5647H56.3756C57.1859 56.5647 57.8429 57.2239 57.8429 58.037C57.8429 58.8501 57.1861 59.5093 56.3756 59.5093ZM76.5328 47.2665C75.953 47.2665 75.4039 46.9196 75.1726 46.3474L71.8757 38.1937C70.5097 34.8162 68.9807 32.8295 67.0071 31.9778L63.4591 36.8565C63.1829 37.2362 62.7425 37.4609 62.2739 37.4609C61.8053 37.4609 61.365 37.2362 61.0888 36.8565L57.5393 31.9761C56.4202 32.4565 55.4529 33.2957 54.5838 34.5229C54.4946 34.6486 52.1289 37.8179 51.3769 38.8001C50.8832 39.445 49.9621 39.5659 49.3195 39.0707C48.677 38.5752 48.5563 37.6508 49.0501 37.0061C49.8002 36.0265 52.0797 32.9709 52.1997 32.8064C54.2019 29.979 56.8582 28.5396 60.0872 28.5396H64.4603C70.4459 28.5396 73.111 33.4174 74.5951 37.0864L77.892 45.2402C78.1966 45.9937 77.8349 46.8524 77.0841 47.1581C76.9032 47.2315 76.7164 47.2665 76.5328 47.2665ZM60.8144 31.4842L62.2739 33.4908L63.7333 31.4842H60.8144ZM69.5645 44.2808H47.4897C46.6794 44.2808 46.0224 43.6216 46.0224 42.8085C46.0224 41.9954 46.6794 41.3362 47.4897 41.3362H69.5645C70.3748 41.3362 71.0317 41.9954 71.0317 42.8085C71.0317 43.6216 70.3748 44.2808 69.5645 44.2808ZM33.7128 40.6052C29.3153 40.6052 25.7378 37.0151 25.7378 32.6024C25.7378 28.9689 28.1639 25.8931 31.4756 24.9203C31.4927 24.9148 31.5101 24.9094 31.5275 24.9044C31.927 24.7905 32.3349 24.7083 32.7474 24.6582C33.0045 24.6269 33.2659 24.608 33.53 24.6019C33.5331 24.5999 33.5355 24.6017 33.5384 24.6015C33.5412 24.6013 33.5441 24.6015 33.5467 24.6013C33.549 24.6013 33.5516 24.6013 33.554 24.6013C33.556 24.6011 33.5578 24.6011 33.5604 24.6011C33.6074 24.6002 33.6554 24.5989 33.7015 24.5997C33.7044 24.5995 33.7077 24.5995 33.7114 24.5997C33.7121 24.5997 33.713 24.5997 33.713 24.5997C33.715 24.5997 33.7165 24.5995 33.7187 24.5997C33.7227 24.5997 33.7266 24.5997 33.7306 24.5997C33.7328 24.5997 33.735 24.5999 33.7368 24.5997C33.7389 24.5997 33.7409 24.5997 33.7431 24.5997C33.7453 24.5997 33.748 24.5997 33.7497 24.5997C33.7519 24.5997 33.7545 24.5999 33.7567 24.5999C33.759 24.5999 33.7616 24.5999 33.764 24.5999C33.7642 24.5999 33.7647 24.5999 33.7649 24.5999C37.8249 24.6256 41.186 27.6615 41.6376 31.6994C41.6709 31.9957 41.688 32.2971 41.688 32.6023C41.6876 37.0153 38.1101 40.6052 33.7128 40.6052ZM30.9031 28.4049C29.5581 29.3142 28.6721 30.8563 28.6721 32.6024C28.6721 35.3915 30.9333 37.6606 33.7126 37.6606C36.1273 37.6606 38.1507 35.9481 38.6402 33.6697C38.5615 33.6721 38.4826 33.6732 38.4038 33.6732C34.9635 33.6732 32.0165 31.5113 30.9031 28.4049ZM33.717 27.5445C34.4574 29.4268 36.2774 30.7249 38.3946 30.7287C37.6569 28.8793 35.861 27.5653 33.7625 27.5447C33.7601 27.5447 33.7576 27.5447 33.7552 27.5447C33.753 27.5449 33.7506 27.5449 33.748 27.5447C33.7458 27.5445 33.7433 27.5443 33.7407 27.5445C33.7383 27.5445 33.7359 27.5445 33.7335 27.5445C33.731 27.5445 33.7286 27.5445 33.7262 27.5445C33.7233 27.5443 33.7203 27.5443 33.717 27.5445ZM62.2739 26.8886C58.498 26.8886 55.426 23.8059 55.426 20.0169C55.426 16.2277 58.498 13.1449 62.2739 13.1449C66.0501 13.1449 69.1221 16.2277 69.1221 20.0169C69.1221 23.8059 66.0499 26.8886 62.2739 26.8886ZM62.2739 16.0895C60.116 16.0895 58.3604 17.8513 58.3604 20.0169C58.3604 22.1823 60.116 23.9439 62.2739 23.9439C64.4321 23.9439 66.1876 22.1823 66.1876 20.0169C66.1876 17.8515 64.4319 16.0895 62.2739 16.0895Z" fill="#6768AB"/>
</svg>
