<svg width="72" height="69" viewBox="0 0 72 69" fill="none" xmlns="http://www.w3.org/2000/svg">
<ellipse cx="32.375" cy="33.5347" rx="32.375" ry="32.5463" fill="#F2F2F2"/>
<path d="M59.7057 57.9888C60.1811 57.9888 60.6226 57.9533 60.9283 57.9177C63.1698 57.6334 63.4075 54.0081 63.1019 48.6412C63.0679 48.3569 63.0679 48.1436 63.0679 48.037C63.0679 47.4683 62.8981 44.4828 59.5698 41.4972C56.7509 38.9382 51.1811 36.1304 50.9434 36.0237C50.6717 35.8816 50.3321 35.8816 50.0604 36.0237L44.8302 38.7249L39.634 36.0237C39.3623 35.8816 39.0226 35.8816 38.7509 36.0237C38.5132 36.1304 32.9434 38.9737 30.1245 41.4972C26.7962 44.5183 26.6264 47.4683 26.6264 48.037C26.6264 48.1436 26.6264 48.3569 26.5924 48.6412C26.2528 54.0081 26.5245 57.5978 28.766 57.9177C30.6 58.1665 35.2528 57.8822 37.834 55.4653C39.0226 54.3635 39.634 52.9418 39.634 51.3424C39.634 50.5249 39.3623 49.8496 38.8868 49.3165C38.0038 48.3924 36.5774 48.2147 35.3547 48.2147V44.0563H39.566C42.1811 44.0563 43.8113 45.4424 43.8113 47.6816C43.8113 49.4587 43.7774 56.7448 43.7774 56.7448H43.8792C43.8792 56.7804 43.8792 56.8159 43.8792 56.8159H45.917C45.917 56.8159 45.883 49.5298 45.883 47.7527C45.883 45.478 47.5132 44.0918 50.0943 44.0918H54.3736V48.2502C53.117 48.2858 51.6906 48.4635 50.8415 49.3521C50.3321 49.8852 50.0943 50.5605 50.0943 51.378C50.0943 52.9774 50.7057 54.4346 51.8943 55.5009C54 57.4201 57.4981 57.9888 59.7057 57.9888ZM60.6566 55.7852C58.9585 55.9984 55.1547 55.643 53.2189 53.8659C52.4717 53.1906 52.0981 52.3376 52.0981 51.3424C52.0981 51.0225 52.2 50.9159 52.2679 50.8448C52.7434 50.3472 54.2717 50.3472 55.1887 50.3472H55.3925C55.9698 50.3472 56.4113 49.8852 56.4113 49.281V42.99C56.4113 42.3858 55.9698 41.9237 55.3925 41.9237H50.1283C47.7849 41.9237 45.9509 42.8478 44.8641 44.3406C43.8113 42.8123 41.9094 41.9237 39.566 41.9237H34.3019C33.7245 41.9237 33.283 42.3858 33.283 42.99V49.281C33.283 49.8852 33.7245 50.3472 34.3019 50.3472H34.5057C35.4226 50.3472 36.9509 50.3472 37.4264 50.8448C37.4943 50.9159 37.5962 51.0581 37.5962 51.3424C37.5962 52.3376 37.2226 53.1906 36.4755 53.8659C34.5736 55.643 30.7358 55.9984 29.0377 55.7852C28.8 55.5364 28.2566 54.3635 28.5962 48.7478C28.6302 48.3924 28.6302 48.1436 28.6302 48.037C28.6302 47.9304 28.6641 45.5846 31.4151 43.0966C33.6226 41.1418 37.8 38.8671 39.1585 38.1563L44.3547 40.893C44.6264 41.0352 44.966 41.0352 45.2717 40.893L50.5358 38.1563C51.8943 38.8671 56.1057 41.1418 58.2792 43.0966C61.0302 45.5846 61.0642 47.9304 61.0642 48.037C61.0642 48.1436 61.0642 48.3924 61.0981 48.7478C61.4377 54.399 60.8604 55.5719 60.6566 55.7852Z" fill="#6768AB"/>
<path d="M44.7623 36.2369C49.5849 36.2369 54.9849 31.8297 54.9849 25.4676C54.9849 24.8634 54.5434 24.4014 53.966 24.4014C53.3887 24.4014 52.9472 24.8634 52.9472 25.4676C52.9472 30.5502 48.634 34.1044 44.7623 34.1044C41.5019 34.1044 36.7472 30.7279 36.7472 25.4676C36.7472 24.8634 36.3057 24.4014 35.7283 24.4014C35.1509 24.4014 34.7094 24.8634 34.7094 25.4676C34.7094 31.6164 40.0075 36.2369 44.7623 36.2369Z" fill="#6768AB"/>
<path d="M34.0642 26.3918H55.6302C55.9019 26.3918 56.1736 26.2852 56.3774 26.0719C56.5811 25.8587 56.683 25.5744 56.6491 25.29C56.4792 21.096 54.034 18.1816 53.7623 17.8617C53.3887 17.4352 52.7434 17.3997 52.3358 17.7906C51.9283 18.1816 51.8943 18.8569 52.2679 19.2834C52.3358 19.39 54.034 21.3448 54.5094 24.2593H35.2189C35.6943 21.3448 37.3585 19.39 37.4604 19.2834C37.834 18.8569 37.8 18.1816 37.3925 17.7906C36.9849 17.3997 36.3396 17.4352 35.966 17.8617C35.6943 18.1816 33.2491 21.096 33.0792 25.29C33.0792 25.5744 33.1811 25.8587 33.3509 26.0719C33.5208 26.2497 33.7925 26.3918 34.0642 26.3918Z" fill="#6768AB"/>
<path d="M44.8981 21.5936C44.966 21.5936 45.0679 21.5936 45.1359 21.558L60.6566 17.5773C61.0981 17.4707 61.4377 17.0442 61.4377 16.5466C61.4377 16.049 61.0981 15.6225 60.6566 15.5159L45.034 11.6418C44.8642 11.6062 44.7283 11.6062 44.5585 11.6418L29.0038 15.5159C28.5623 15.6225 28.2226 16.049 28.2226 16.5466C28.2226 17.0442 28.5283 17.4707 29.0038 17.5773L44.6604 21.5936C44.7283 21.5936 44.8302 21.5936 44.8981 21.5936ZM56.0717 16.5821L44.8981 19.461L33.5887 16.5821L44.7962 13.8098L56.0717 16.5821Z" fill="#6768AB"/>
<path d="M20.1396 61.2942H69.5208C70.0981 61.2942 70.5396 60.8321 70.5396 60.2279C70.5396 59.6237 70.0981 59.1616 69.5208 59.1616H20.1396C19.5623 59.1616 19.1208 59.6237 19.1208 60.2279C19.1208 60.8321 19.5962 61.2942 20.1396 61.2942Z" fill="#6768AB"/>
<path d="M26.0151 65.3105H63.6792C64.2566 65.3105 64.6981 64.8485 64.6981 64.2442C64.6981 63.64 64.2566 63.178 63.6792 63.178H26.049C25.4717 63.178 25.0302 63.64 25.0302 64.2442C25.0302 64.8485 25.4717 65.3105 26.0151 65.3105Z" fill="#6768AB"/>
</svg>
