<svg width="24" height="24" viewBox="0 0 24 24" fill="none" xmlns="http://www.w3.org/2000/svg">
<path d="M17.8258 7.49868C18.5604 7.49868 19.1559 6.89681 19.1559 6.15437C19.1559 5.41193 18.5604 4.81006 17.8258 4.81006C17.0911 4.81006 16.4956 5.41193 16.4956 6.15437C16.4956 6.89681 17.0911 7.49868 17.8258 7.49868Z" fill="white"/>
<path d="M11.7734 6.55766C8.6475 6.55766 6.12015 9.11186 6.12015 12.271C6.12015 15.4301 8.6475 17.9843 11.7734 17.9843C14.8994 17.9843 17.4267 15.4301 17.4267 12.271C17.4932 9.11186 14.8994 6.55766 11.7734 6.55766ZM11.7734 15.9679C9.77816 15.9679 8.11542 14.2875 8.11542 12.271C8.11542 10.2545 9.77816 8.57413 11.7734 8.57413C13.7687 8.57413 15.4314 10.2545 15.4314 12.271C15.4314 14.2875 13.8352 15.9679 11.7734 15.9679Z" fill="white"/>
<path d="M16.296 23.8993H7.11777C3.32674 23.8993 0.200806 20.7402 0.200806 16.9089V7.63311C0.200806 3.80182 3.32674 0.642685 7.11777 0.642685H16.296C20.0871 0.642685 23.213 3.80182 23.213 7.63311V16.9089C23.213 20.7402 20.0871 23.8993 16.296 23.8993ZM7.11777 2.79358C4.52391 2.79358 2.39561 4.94448 2.39561 7.56589V16.8416C2.39561 19.4631 4.52391 21.614 7.11777 21.614H16.296C18.8899 21.614 21.0182 19.4631 21.0182 16.8416V7.63311C21.0182 5.0117 18.8899 2.8608 16.296 2.8608H7.11777V2.79358Z" fill="white"/>
</svg>
