<svg width="78" height="72" viewBox="0 0 78 72" fill="none" xmlns="http://www.w3.org/2000/svg">
<g clip-path="url(#clip0_76_1221)">
<path d="M67.6306 36.8883C67.6306 19.212 53.3753 4.88834 35.7833 4.88834C18.1913 4.88834 3.93597 19.212 3.93597 36.8883C3.93597 49.5157 11.2185 60.4366 21.7976 65.6462V61.9021H28.5707V68.0753C29.28 68.2359 29.9992 68.3864 30.7285 68.4969V56.01H37.5015V68.8381C38.2208 68.798 38.9401 68.7378 39.6493 68.6474V49.7365H46.4224V67.0514C47.2415 66.7603 48.0407 66.4391 48.8299 66.0778V39.1769H55.603V61.9322C56.4621 61.2396 57.2912 60.5069 58.0804 59.734V30.1029H64.8535V49.9874C66.6316 45.9824 67.6306 41.5558 67.6306 36.8883ZM20.529 39.3074H18.3212V45.2497H16.6729V39.3074H14.4652V37.9021H20.519V39.3074H20.529ZM14.4452 34.4893V17.5458H27.3519V20.7478H17.7918V24.0703H26.4629V27.202H17.7918V31.2873H27.9413V34.4893H14.4452ZM28.9303 45.2497H27.5517C27.0822 44.4065 26.5728 43.5734 26.0233 42.7603C25.4739 41.9373 24.8945 41.1644 24.2751 40.4417V45.2597H22.6468V37.9122H23.9754C24.2052 38.143 24.4649 38.4341 24.7446 38.7754C25.0243 39.1167 25.314 39.478 25.6037 39.8595C25.8934 40.2409 26.1832 40.6424 26.4729 41.054C26.7626 41.4655 27.0323 41.867 27.282 42.2484V37.9122H28.9203V45.2497H28.9303ZM37.092 39.3074H34.8842V45.2497H33.2359V39.3074H31.0282V37.9021H37.082V39.3074H37.092ZM45.0838 42.4693C45.0838 42.9009 45.0238 43.2923 44.9039 43.6537C44.7841 44.0151 44.6043 44.3262 44.3545 44.5772C44.1048 44.8381 43.7951 45.0389 43.4155 45.1794C43.0359 45.32 42.5863 45.3902 42.0669 45.3902C41.5574 45.3902 41.1078 45.3199 40.7382 45.1694C40.3686 45.0289 40.0589 44.8181 39.8192 44.5671C39.5794 44.3061 39.3996 44.005 39.2797 43.6437C39.1598 43.2823 39.1099 42.8908 39.1099 42.4592V37.8921H40.7582V42.3287C40.7582 42.6299 40.7882 42.8808 40.8581 43.0916C40.928 43.3024 41.0179 43.473 41.1278 43.6035C41.2477 43.734 41.3876 43.8243 41.5474 43.8846C41.7172 43.9448 41.897 43.9649 42.0868 43.9649C42.4864 43.9649 42.8161 43.8444 43.0658 43.5935C43.3156 43.3425 43.4454 42.921 43.4454 42.3287V37.8921H45.0938V42.4693H45.0838ZM41.4575 34.4893C41.0979 33.9373 40.6783 33.345 40.1888 32.7026C39.6993 32.0602 39.1798 31.4178 38.6204 30.7654C38.061 30.1129 37.4716 29.4906 36.8522 28.8984C36.2328 28.3061 35.6235 27.7742 35.0141 27.3124V34.4893H31.0282V17.5458H35.0141V23.9097C36.033 22.8758 37.082 21.8018 38.1309 20.6775C39.1898 19.5533 40.1588 18.5094 41.0579 17.5458H45.783C44.5743 18.921 43.3655 20.2359 42.1468 21.5107C40.928 22.7754 39.6493 24.0502 38.3007 25.335C39.7193 26.4693 41.0779 27.8043 42.3965 29.3601C43.7152 30.9159 44.9739 32.6223 46.1926 34.4893H41.4575Z" fill="white"/>
<path d="M78 21.8218L70.5277 10.6198L67.5507 23.4881L67.5807 23.3877C68.4498 22.1932 69.279 21.33 70.0282 20.7378C70.0582 20.8783 70.0881 21.0389 70.1181 21.1995C70.1281 21.2597 70.1381 21.32 70.1581 21.3802C70.1681 21.4404 70.178 21.5006 70.188 21.5609C70.208 21.6813 70.228 21.8118 70.248 21.9523C70.2879 22.2233 70.3379 22.5044 70.3878 22.8055C70.4378 23.1067 70.4877 23.4178 70.5377 23.7491C70.5776 24.0903 70.6276 24.4417 70.6775 24.803C70.7275 25.1744 70.7774 25.5558 70.8274 25.9473C70.8673 26.3488 70.9073 26.7604 70.9473 27.1819C71.0472 28.0351 71.0871 28.9385 71.157 29.9021C71.177 30.143 71.187 30.3839 71.187 30.6249C71.197 30.8658 71.207 31.1167 71.207 31.3676C71.217 31.6186 71.227 31.8695 71.227 32.1305C71.237 32.3915 71.227 32.6424 71.227 32.9134C71.227 33.1744 71.227 33.4454 71.227 33.7064C71.227 33.9774 71.227 34.2484 71.217 34.5195C71.197 35.0615 71.177 35.6136 71.1471 36.1857C71.1071 36.7478 71.0571 37.32 71.0172 37.9021C70.9572 38.4843 70.8873 39.0665 70.8174 39.6587C70.7375 40.2509 70.6376 40.8432 70.5477 41.4555C70.4977 41.7566 70.4278 42.0577 70.3678 42.3589C70.3079 42.66 70.248 42.9711 70.188 43.2723C70.1181 43.5734 70.0382 43.8846 69.9683 44.1857C69.8883 44.4969 69.8284 44.808 69.7385 45.1092C69.5587 45.7215 69.3988 46.3538 69.1891 46.9561C69.0892 47.2673 68.9893 47.5784 68.8794 47.8896C68.7595 48.1907 68.6496 48.5019 68.5297 48.8131C68.4698 48.9636 68.4099 49.1242 68.3499 49.2748C68.29 49.4254 68.2201 49.5759 68.1601 49.7365C68.0302 50.0377 67.9004 50.3488 67.7605 50.6499C67.6207 50.9511 67.4708 51.2522 67.331 51.5533C67.261 51.7039 67.1811 51.8545 67.1112 52.005C67.0413 52.1556 66.9514 52.3062 66.8714 52.4467C66.7116 52.7478 66.5518 53.0389 66.3919 53.34C66.2221 53.6311 66.0423 53.9222 65.8725 54.2133C65.7826 54.3639 65.7026 54.5044 65.6027 54.655L65.323 55.0866L65.0433 55.5182C64.9534 55.6587 64.8535 55.8093 64.7536 55.9398C64.5538 56.2208 64.354 56.5019 64.1442 56.7729C64.0443 56.9134 63.9344 57.0439 63.8246 57.1845L63.5049 57.586L63.1852 57.9975L62.8456 58.389L62.5059 58.7804C62.386 58.9109 62.2861 59.0414 62.1563 59.1719L61.437 59.9348C61.3171 60.0653 61.1873 60.1857 61.0674 60.3062L60.6878 60.6675C58.6798 62.6048 56.4122 64.2811 54.0146 65.6663C52.8158 66.3488 51.5771 66.9712 50.3384 67.5333C49.0897 68.0753 47.821 68.5571 46.5623 68.9686C45.2936 69.3802 44.0348 69.7215 42.7761 70.0025C42.4665 70.0728 42.1468 70.133 41.8371 70.2033C41.5274 70.2635 41.2177 70.3237 40.9081 70.384C40.7582 70.4141 40.5984 70.4442 40.4485 70.4643C40.2987 70.4843 40.1388 70.5145 39.989 70.5345C39.6793 70.5847 39.3796 70.6349 39.0699 70.675C37.8512 70.8457 36.6624 70.9461 35.5136 71.0163C34.9342 71.0364 34.3648 71.0766 33.8153 71.0766C33.5356 71.0766 33.2559 71.0866 32.9862 71.0866C32.7164 71.0866 32.4367 71.0766 32.177 71.0766C31.1081 71.0464 30.0792 70.9862 29.1002 70.8858C28.1212 70.7955 27.2021 70.655 26.343 70.5044C24.6247 70.1932 23.1463 69.7817 21.9575 69.3601C21.8076 69.3099 21.6678 69.2597 21.5279 69.2096C21.3881 69.1594 21.2582 69.0991 21.1283 69.049C20.9985 68.9988 20.8686 68.9486 20.7487 68.8984C20.6288 68.8482 20.509 68.798 20.3991 68.7478C20.1793 68.6474 19.9695 68.5571 19.7797 68.4668C19.5899 68.3764 19.4301 68.2861 19.2702 68.2158C19.1204 68.1456 18.9905 68.0653 18.8806 68.005C18.7707 67.9448 18.6708 67.8846 18.6009 67.8444C18.4511 67.7541 18.3712 67.7139 18.3712 67.7139C18.3712 67.7139 18.4511 67.7641 18.5909 67.8545C18.6609 67.9047 18.7608 67.9649 18.8607 68.0351C18.9705 68.1054 19.0904 68.1857 19.2403 68.266C19.3901 68.3463 19.5499 68.4467 19.7298 68.5471C19.9096 68.6474 20.1194 68.7478 20.3391 68.8683C20.449 68.9285 20.5589 68.9887 20.6788 69.0389C20.7987 69.0991 20.9185 69.1493 21.0484 69.2096C21.1783 69.2698 21.3081 69.33 21.448 69.3902C21.5879 69.4505 21.7277 69.5107 21.8776 69.5709C23.0464 70.0527 24.5149 70.5546 26.2431 70.9661C27.1022 71.1669 28.0313 71.3576 29.0202 71.5082C29.9992 71.6688 31.0482 71.7792 32.137 71.8695C32.4068 71.8896 32.6865 71.9097 32.9662 71.9298C33.2459 71.9498 33.5256 71.9599 33.8153 71.9699C34.3847 72 34.9641 72 35.5535 72.0101C36.7323 72 37.9511 71.9599 39.2098 71.8595C39.5195 71.8394 39.8391 71.7993 40.1588 71.7692C40.3187 71.7491 40.4785 71.739 40.6383 71.719C40.7982 71.6989 40.958 71.6788 41.1178 71.6587C41.4375 71.6186 41.7572 71.5784 42.0868 71.5282C42.4065 71.4781 42.7362 71.4279 43.0658 71.3777C44.3645 71.1468 45.6931 70.8758 47.0318 70.5144C48.3604 70.1531 49.709 69.7315 51.0377 69.2296C52.3663 68.7177 53.6949 68.1456 55.0036 67.4831C57.6109 66.1581 60.1283 64.5119 62.396 62.5446L62.8156 62.1732C62.9554 62.0527 63.1053 61.9323 63.2352 61.8018L64.0543 61.0289C64.1942 60.8984 64.324 60.7579 64.4539 60.6274L64.8435 60.2259L65.2331 59.8244L65.6027 59.4028L65.9724 58.9812C66.0922 58.8407 66.2221 58.7001 66.342 58.5496C66.5817 58.2585 66.8115 57.9674 67.0513 57.6763C67.1711 57.5358 67.281 57.3852 67.3909 57.2346L67.7206 56.783L68.0502 56.3313C68.1601 56.1807 68.26 56.0201 68.3699 55.8695C68.5797 55.5584 68.7895 55.2472 68.9893 54.9461C69.1791 54.6249 69.3789 54.3137 69.5687 54.0025C69.6686 53.8419 69.7685 53.6914 69.8584 53.5308C69.9483 53.3702 70.0382 53.2095 70.1281 53.0489C70.3079 52.7277 70.4877 52.4065 70.6576 52.0853C70.8174 51.7541 70.9772 51.4329 71.1471 51.1117C71.227 50.9511 71.3069 50.7905 71.3868 50.6198C71.4567 50.4592 71.5367 50.2886 71.6066 50.128C71.7564 49.7967 71.8963 49.4655 72.0461 49.1443C72.176 48.8131 72.3059 48.4818 72.4357 48.1506C72.7054 47.4981 72.9152 46.8256 73.145 46.1631C73.2649 45.8319 73.3548 45.5006 73.4547 45.1694C73.5546 44.8382 73.6545 44.5069 73.7444 44.1857C73.8343 43.8545 73.9142 43.5232 73.9941 43.202C74.0741 42.8708 74.164 42.5496 74.2339 42.2284C74.3737 41.5759 74.5136 40.9335 74.6335 40.2911C74.7434 39.6487 74.8533 39.0264 74.9532 38.394C75.0331 37.7717 75.113 37.1594 75.1929 36.5471C75.2528 35.9448 75.3028 35.3425 75.3627 34.7604C75.3927 34.4693 75.4027 34.1782 75.4227 33.8871C75.4426 33.596 75.4526 33.3149 75.4726 33.0339C75.4826 32.7528 75.5126 32.4718 75.5126 32.2008C75.5226 31.9297 75.5226 31.6487 75.5325 31.3877C75.5425 31.1167 75.5425 30.8557 75.5525 30.5847C75.5625 30.3237 75.5625 30.0627 75.5625 29.8018C75.5525 28.7779 75.5525 27.8043 75.4926 26.8908C75.4726 26.4392 75.4526 25.9975 75.4327 25.5659C75.4027 25.1443 75.3727 24.7328 75.3428 24.3413C75.3128 23.9498 75.2828 23.5684 75.2528 23.207C75.2229 22.8457 75.1829 22.4944 75.143 22.1631C75.103 21.8319 75.073 21.5207 75.0431 21.2296C75.0231 21.0791 75.0131 20.9385 74.9931 20.798C74.9831 20.7277 74.9831 20.6575 74.9731 20.5972C74.9631 20.537 74.9532 20.4668 74.9432 20.4065C74.9232 20.2359 74.9032 20.0753 74.8732 19.9247C75.7124 20.2259 76.6814 20.7277 77.7503 21.5307L78 21.8218Z" fill="white"/>
<path d="M66.5717 14.665C66.292 14.3036 65.9823 13.9222 65.6426 13.5207C64.4938 12.1556 62.9954 10.5596 61.0973 8.95358C60.1483 8.15056 59.0994 7.33752 57.9505 6.55458C56.8017 5.77164 55.553 5.00878 54.2144 4.29611C51.5271 2.87077 48.4503 1.66625 45.0738 0.89335C43.3855 0.51192 41.6273 0.230866 39.8191 0.100376C38.9201 0.0301129 38.001 0 37.072 0C36.6124 0 36.1429 0.0100376 35.6734 0.0401506C35.5535 0.0401506 35.4436 0.0501882 35.3238 0.0602258L34.9641 0.0803011C34.7443 0.100376 34.5246 0.120452 34.2948 0.140527L34.125 0.150565L33.9452 0.17064L33.5855 0.21079C33.3458 0.230866 33.106 0.260979 32.8763 0.291092C32.6465 0.321205 32.4067 0.351317 32.177 0.38143C31.9472 0.411543 31.7075 0.451694 31.4777 0.481807C30.5486 0.632371 29.6096 0.813049 28.6806 1.02384C27.7515 1.24467 26.8225 1.49561 25.9034 1.77666C24.9844 2.05772 24.0653 2.38896 23.1662 2.74028C21.3581 3.45295 19.5899 4.31619 17.9016 5.29987C16.2233 6.30364 14.605 7.42785 13.0866 8.67252C12.3273 9.29486 11.5981 9.9473 10.8888 10.6299C10.1795 11.3024 9.50024 12.005 8.85091 12.7378C7.55224 14.1932 6.37345 15.7491 5.35449 17.3752C3.28661 20.6274 1.8381 24.1706 0.97898 27.7039C0.769195 28.5872 0.58938 29.4806 0.449523 30.3538C0.309667 31.2371 0.209769 32.1104 0.129851 32.9837C0.0599228 33.857 0.00997408 34.7202 -1.5676e-05 35.5734C-0.0100054 35.7842 -1.5676e-05 35.995 -1.5676e-05 36.2158V36.537C-1.5676e-05 36.5872 -1.5676e-05 36.6374 -1.5676e-05 36.6976V36.8582C0.00997408 37.2698 0.0199638 37.6813 0.0499331 38.1029C0.0998819 38.946 0.18979 39.7491 0.279697 40.5521C0.389585 41.3551 0.499472 42.138 0.659308 42.9009C0.959001 44.4266 1.33861 45.8921 1.79814 47.2572C2.25767 48.6223 2.77714 49.9072 3.33656 51.0916C3.886 52.2861 4.47539 53.3802 5.07478 54.3739C6.27355 56.3714 7.52227 57.9975 8.61115 59.2522C9.71002 60.5169 10.6391 61.4404 11.2984 62.0427C11.6181 62.3538 11.8778 62.5747 12.0576 62.7252C12.2274 62.8758 12.3174 62.9561 12.3174 62.9561C12.3174 62.9561 12.2274 62.8758 12.0676 62.7152C11.8978 62.5546 11.658 62.3137 11.3483 61.9925C10.729 61.3501 9.83989 60.3864 8.81095 59.0816C8.30147 58.4291 7.75203 57.6964 7.19261 56.8632C6.64317 56.0301 6.06376 55.1167 5.51433 54.1029C4.96489 53.0891 4.42545 51.995 3.92596 50.8005C3.42647 49.6161 2.96694 48.3413 2.56735 46.9862C2.16776 45.6311 1.85808 44.1957 1.61832 42.7001C1.48846 41.9573 1.40854 41.1844 1.32862 40.4115C1.30864 40.2208 1.29865 40.0201 1.27867 39.8294C1.25869 39.6286 1.2487 39.4379 1.23871 39.2371C1.22872 39.0364 1.21873 38.8457 1.20874 38.6449C1.19875 38.4442 1.19875 38.2535 1.18876 38.0527C1.17878 37.6612 1.17878 37.2396 1.17878 36.8281V36.6675V36.527L1.19875 36.2359C1.20874 36.0351 1.20874 35.8243 1.21873 35.6236C1.25869 34.8005 1.32862 33.9674 1.41853 33.1343C1.51843 32.3011 1.64829 31.458 1.79814 30.6148C1.95798 29.7716 2.15777 28.9285 2.38754 28.0853C2.6173 27.2422 2.88702 26.409 3.18672 25.5759C3.33656 25.1543 3.4964 24.7428 3.66622 24.3312C3.83605 23.9197 4.01586 23.5082 4.20567 23.1066C4.58528 22.2936 4.97488 21.4906 5.41443 20.6976C5.85398 19.9046 6.3235 19.1317 6.83298 18.3689C7.84194 16.8432 8.99076 15.4078 10.2495 14.0527C10.8788 13.3802 11.5381 12.7277 12.2274 12.1054C12.9067 11.4831 13.616 10.8808 14.3453 10.3087C15.8038 9.16437 17.3522 8.14053 18.9705 7.24718C20.5889 6.35383 22.2671 5.59097 23.9754 4.94856C24.8345 4.62735 25.6936 4.33626 26.5627 4.08532C27.4318 3.83438 28.3109 3.61355 29.1801 3.42284C30.0592 3.23212 30.9382 3.08156 31.8074 2.95107C32.0271 2.92095 32.2469 2.89084 32.4667 2.86073C32.6865 2.84065 32.9062 2.81054 33.126 2.79046C33.3458 2.76035 33.5656 2.75031 33.7753 2.73024C33.9951 2.71016 34.2049 2.69009 34.4247 2.68005C34.6444 2.65998 34.8642 2.64994 35.094 2.62986L35.4037 2.60979C35.5136 2.59975 35.6234 2.59975 35.7233 2.59975C36.1529 2.57967 36.5825 2.57967 37.012 2.57967C37.8611 2.58971 38.7103 2.62986 39.5494 2.70013C41.2177 2.85069 42.846 3.12171 44.4044 3.50314C45.9628 3.88457 47.4613 4.3463 48.8699 4.88833C50.2784 5.43036 51.607 6.0527 52.8458 6.71518C54.0845 7.3877 55.2333 8.09034 56.2922 8.82309C57.3512 9.55583 58.3102 10.3087 59.1893 11.0615C60.9275 12.5671 62.3261 14.0326 63.385 15.3074C64.304 16.4015 65.0033 17.335 65.5028 18.0477L66.5717 14.665Z" fill="white"/>
<path d="M68.8294 18.1079L68.9693 18.0276C68.9693 18.0276 68.9393 17.9774 68.8794 17.8971L68.8294 18.1079Z" fill="white"/>
</g>
<defs>
<clipPath id="clip0_76_1221">
<rect width="78" height="72" fill="white"/>
</clipPath>
</defs>
</svg>
